<svg xmlns="http://www.w3.org/2000/svg" xmlns:xlink="http://www.w3.org/1999/xlink" width="1080" zoomAndPan="magnify" viewBox="0 0 810 1012.49997" height="1350" preserveAspectRatio="xMidYMid meet" version="1.0"><path fill="#ffffff" d="M 248.730469 3.929688 C 248.730469 3.929688 30.445312 6.800781 33.273438 204.535156 C 36.105469 402.269531 75.808594 577.113281 141.011719 674.550781 C 206.21875 771.988281 373.449219 1027.054688 563.40625 1001.273438 C 563.40625 1001.273438 656.960938 981.203125 727.816406 935.339844 L 498.199219 754.785156 C 498.199219 754.785156 430.164062 797.777344 387.640625 740.453125 C 345.117188 683.128906 211.878906 416.621094 211.878906 416.621094 C 211.878906 416.621094 175.023438 330.632812 257.242188 293.378906 Z M 248.730469 3.929688 " fill-opacity="1" fill-rule="nonzero"/><path fill="#ffffff" d="M 274.253906 3.929688 C 274.253906 3.929688 291.265625 -1.78125 322.4375 15.398438 C 353.609375 32.582031 353.617188 46.902344 353.617188 46.902344 L 356.457031 244.667969 C 356.457031 244.667969 347.949219 256.136719 336.617188 267.578125 C 325.277344 279.039062 288.421875 296.25 282.742188 284.78125 C 277.09375 273.328125 274.253906 3.929688 274.253906 3.929688 Z M 274.253906 3.929688 " fill-opacity="1" fill-rule="nonzero"/><path fill="#ffffff" d="M 517.289062 733.652344 L 580.414062 700.332031 C 580.414062 700.332031 594.585938 697.480469 617.257812 711.792969 C 639.941406 726.152344 759.007812 820.730469 759.007812 820.730469 C 759.007812 820.730469 778.851562 837.921875 773.179688 857.984375 C 767.511719 878.042969 753.339844 921.039062 753.339844 921.039062 Z M 517.289062 733.652344 " fill-opacity="1" fill-rule="nonzero"/></svg>